<svg version="1.1" id="Layer_1" xmlns="http://www.w3.org/2000/svg" xmlns:xlink="http://www.w3.org/1999/xlink" x="0px" y="0px"
	 width="150px" height="125px" viewBox="0 0 150 125" fill="#f8f9fa" enable-background="new 0 0 150 125" xml:space="preserve">
<path d="M137.955,62.055c6.928-6.384,11.271-15.528,11.271-25.669c0-19.246-15.66-34.907-34.91-34.907
	c-19.248,0-34.91,15.661-34.91,34.907c0,19.25,15.662,34.915,34.91,34.915c9.059,0,16.43,7.363,16.43,16.422
	c0,9.061-7.371,17.572-16.43,17.572S97.891,99,97.891,90H79.406c0,19,15.662,33.771,34.91,33.771c19.25,0,34.91-16.227,34.91-35.479
	C149.227,78.148,144.883,68.438,137.955,62.055z M113.805,64.543c-15.594,0-28.236-12.64-28.236-28.235
	c0-15.594,12.643-28.235,28.236-28.235c15.596,0,28.236,12.642,28.236,28.235C142.041,51.903,129.4,64.543,113.805,64.543z"/>
<g>
	<path d="M57,123.219c-29,0-55.445-24.871-55.445-55.443C1.555,37.201,28,12.329,57,12.329v18.482
		c-18,0-36.962,16.581-36.962,36.964C20.038,88.156,39,104.736,57,104.736V123.219z"/>
	<path d="M114.252,65.543c-4.504,0-8.76-1.061-12.537-2.935c-4.469,5.577-9.538,11.423-12.896,16.79
		C78.702,95.582,73,104.736,56,104.736v18.482c25,0,38.503-18.076,48.474-34.016c8.693-13.902,17.704-27.032,34.968-31.586
		l-1.229-5.956C133.296,59.97,124.602,65.543,114.252,65.543z"/>
</g>
<path d="M113.061,56.842c-11.344,0-20.537-9.19-20.537-20.534c0-11.342,9.193-20.534,20.537-20.534"/>
</svg>